<?xml version="1.0" encoding="utf-8"?>
<!-- Generator: Adobe Illustrator 16.0.0, SVG Export Plug-In . SVG Version: 6.00 Build 0)  -->
<!DOCTYPE svg PUBLIC "-//W3C//DTD SVG 1.1//EN" "http://www.w3.org/Graphics/SVG/1.1/DTD/svg11.dtd">
<svg version="1.1" id="Layer_1" xmlns="http://www.w3.org/2000/svg" xmlns:xlink="http://www.w3.org/1999/xlink" x="0px" y="0px"
	 width="100px" height="100px" viewBox="0 0 100 100" enable-background="new 0 0 100 100" xml:space="preserve">
<g>
	<g>
		<path fill="none" d="M83.271,62.136c-0.361,0.267-0.732,0.486-1.086,0.667C82.477,62.675,82.842,62.461,83.271,62.136z"/>
		<path fill="#E6E6E6" d="M99.348,45.881c-0.326,4.766-0.684,9.782-1.045,14.766c0.783-3.508,1.209-7.147,1.209-10.891
			C99.512,48.45,99.445,47.161,99.348,45.881z"/>
		<path fill="#E6E6E6" d="M87.782,73.883c0,0-0.005-0.006-0.017-0.019c-5.464,1.044-12.634-6.269-12.634-6.269
			c-4.293,1.072-7.819-1.074-9.967-2.914s-1.687-7.358-1.687-7.358l-0.537-0.077c0,0,0.009-0.061,0.023-0.159L46.46,49.503
			c0,0-0.613,1.839-4.141,1.993c-3.525,0.154-5.673-1.993-5.673-1.993c-2.147,0.126-7.205-1.417-8.235-6.937
			c-0.028,0.023-0.044,0.036-0.044,0.036s-0.048,0.227-0.104,0.002c-1.033,0.025-9.517,0.292-11.243,2.451
			c-1.84,2.301-5.673,8.433-4.753,18.707c0.503,5.629,2.618,15.439,4.427,23.166c8.791,7.823,20.368,12.584,33.062,12.584
			c17.085,0,32.154-8.613,41.113-21.732c-1.531-2.494-2.551-4.051-2.551-4.051L87.782,73.883z"/>
		<path fill="#E6E6E6" d="M11.653,42.757c3.648-3.112,7.075-5.092,11.325-6.003c-2.312-1.2-10.525-5.468-17.725-9.249
			C1.899,34.202,0,41.755,0,49.756C0,60.217,3.233,69.918,8.749,77.93c-0.471-2.009-0.894-4.041-1.235-6.041
			C5.368,59.316,8.01,45.865,11.653,42.757z"/>
		<path fill="#E6E6E6" d="M94.5,27.98c-0.503,3.293-0.92,6.479-1.43,11.403c-0.92,8.893-3.832,14.719-3.832,14.719
			s3.986,2.453,5.365,6.287c1.164,3.229-0.392,7.752-0.91,9.101c0.617,0.921,1.009,1.557,1.009,1.557l-0.204,0.492
			c1.672-3.429,2.952-7.079,3.805-10.894c0.361-4.981,0.719-10,1.045-14.765C98.855,39.502,97.171,33.458,94.5,27.98z"/>
		<path fill="#E6E6E6" d="M94.498,71.538c-0.096-0.174-0.262-0.465-0.479-0.828C94.162,70.954,94.318,71.227,94.498,71.538z"/>
		<path fill="#E6E6E6" d="M80.536,63.934c0.433,0.508,1.157,1.354,1.419,1.67c0.24,0.287,1.202,0.847,1.906,1.28
			c-0.555-1.06-2.348-3.018-2.87-3.579c-0.479,0.162-0.8,0.229-0.8,0.229S80.336,63.701,80.536,63.934z"/>
		<path fill="#E6E6E6" d="M30.111,33.88c2.734-3.555,7.455-2.47,7.455-2.47c0.768-1.84,2.147-3.22,5.673-2.76
			c3.527,0.46,2.607,3.066,2.761,3.986c0.152,0.92,0,0,3.68,1.84c3.679,1.84,1.993,6.44,2.3,7.053
			c0.272,0.547,12.359,5.6,14.979,6.689c0.015-0.005,0.036-0.02,0.046-0.02c0.23,0,0.46,0.229,0.46,0.229s3.066-2.605,7.513-2.146
			c4.447,0.46,6.594,5.52,6.594,5.52l1.84,0.613c0,0,1.229-2.453,2.301-5.059c1.072-2.607,2.76-13.8,3.374-17.633
			c0.211-1.33,0.794-4.527,1.495-8.395C81.59,8.44,66.663,0,49.756,0C32.143,0,16.681,9.16,7.837,22.966
			c6.335,2.958,13.736,6.531,16.084,7.984C26.476,32.532,29.125,33.533,30.111,33.88z"/>
		<path fill="#5688C7" d="M85.712,47.357c-1.073,2.606-2.301,5.059-2.301,5.059l-1.841-0.613c0,0-2.146-5.06-6.592-5.52
			s-7.514,2.146-7.514,2.146s-1.609,1.38-2.3,2.99c-0.69,1.608-1.61,5.136-1.687,5.903c0,0-0.461,5.52,1.687,7.359
			c2.147,1.838,5.674,3.985,9.967,2.912c0,0,7.17,7.312,12.634,6.27c-0.021-0.028-0.084-0.107-0.291-0.365
			c-0.308-0.383-1.688-2.377-1.992-3.066c-0.309-0.689-1.229-2.76-1.457-2.837c-0.23-0.077-1.381-0.844-2.53-1.687
			c-1.149-0.844-2.377-3.066-4.14-5.443c-1.506-2.029-5.293-4.332-6.371-4.964c-0.312,0.976-0.523,2.041-0.452,2.894
			c0.264,3.156,4.37,8.74,4.37,8.74s-0.998-0.92-1.533-1.455c-0.536-0.537-3.373-5.139-3.604-6.824
			c-0.229-1.687-0.248-2.736,1.84-6.287c1.533-2.605,7.053-1.303,7.053-1.303c-4.754-0.767-5.749,0.92-6.439,1.688
			c-0.314,0.349-0.722,1.128-1.061,2.045c1.205,0.254,6.749,1.422,7.5,1.559c0.844,0.152,5.367,0.996,6.439,1.993
			c1.073,0.996,2.605,1.992,2.836,2.913c0.144,0.57,0.256,1.051,0.321,1.335c0.706,0.694,2.056,2.132,3.241,3.644
			c0.844,1.078,1.619,2.188,2.195,3.049c0.521-1.35,2.074-5.871,0.912-9.1c-1.381-3.834-5.367-6.287-5.367-6.287
			s2.914-5.827,3.834-14.72c0.509-4.924,0.926-8.11,1.429-11.403c-1.134-2.326-2.449-4.546-3.919-6.651
			c-0.701,3.868-1.284,7.064-1.495,8.395C88.473,33.557,86.784,44.75,85.712,47.357z"/>
		<path fill="#5688C7" d="M91.271,66.622c-1.646-2.142-3.489-4.011-3.489-4.011s0-0.688-0.46-1.303
			c-0.285-0.379-0.86-1.049-1.459-1.597c-0.221,0.251-0.955,1.058-2.223,2.133c-0.121,0.104-0.244,0.198-0.369,0.29
			c-0.431,0.325-0.795,0.539-1.086,0.667c-0.444,0.226-0.858,0.388-1.194,0.503c0.522,0.562,2.315,2.52,2.87,3.578
			c0.418,0.26,0.748,0.473,0.777,0.559c0.075,0.23,1.072,2.07,1.379,2.838c0.307,0.766,2.301,3.449,2.301,3.449
			s1.02,1.557,2.551,4.051c1.354-1.982,2.568-4.067,3.629-6.241c-0.18-0.312-0.336-0.584-0.479-0.828
			C93.416,69.699,92.4,68.093,91.271,66.622z"/>
		<path fill="#5688C7" d="M42.856,36.777c-0.379,1.305-0.664,3.001-0.781,4.495c0.076-0.112,0.149-0.22,0.244-0.355
			c1.073-1.534,4.601-2.377,5.98-2.3c1.38,0.077,2.301,1.687,2.301,1.687c-0.768,0.23-1.075-0.997-2.53-0.92
			c-0.996,0.052-2.838,0.537-3.682,0.843c-0.33,0.12-0.673,0.383-1.003,0.676l21.393,9.912c0.904-1.481,1.904-2.5,2.183-2.595
			c-2.62-1.09-14.707-6.143-14.979-6.688c-0.308-0.613,1.379-5.213-2.3-7.053c-3.68-1.84-3.527-0.92-3.68-1.84v0.307
			C46,32.944,43.547,34.4,42.856,36.777z"/>
		<path fill="#5688C7" d="M42.862,41.383c-0.309,0.289-0.594,0.549-0.834,0.674c-0.035,0.897,0.003,1.67,0.139,2.156
			c0.382,1.38,1.226,4.063,4.216,4.83c0,0-4.676,0.536-5.289-4.6c-0.614-5.137,0.678-8.067,1.303-8.816
			c1.15-1.38,1.227-1.993,3.604-2.99c-0.153-0.92,0.767-3.526-2.761-3.986c-3.525-0.46-4.905,0.92-5.673,2.76
			c0,0-2.453,3.757-2.453,5.98s-0.69,5.597-0.076,7.59c0.613,1.993,1.609,4.523,1.609,4.523s2.147,2.146,5.673,1.993
			c3.527-0.153,4.141-1.993,4.141-1.993l16.507,7.583c0.114-0.749,0.659-4.065,1.49-5.709C62.188,50.31,45.079,42.256,42.862,41.383
			z"/>
		<path fill="#5688C7" d="M33.887,37.773c0.69-2.146,1.15-4.523,3.68-6.363c0,0-4.721-1.084-7.455,2.47c0,0-1.438,0.903-1.592,3.433
			c-0.109,1.821-0.258,3.237-0.306,4.149c0.086,0.67,0.153,1.141,0.153,1.141s0.016-0.013,0.044-0.036
			c1.03,5.52,6.088,7.062,8.235,6.937c0,0-1.764-3.067-2.069-4.447C34.271,43.677,33.197,39.92,33.887,37.773z"/>
		<path fill="#5688C7" d="M17.021,45.056c1.727-2.159,10.21-2.426,11.243-2.451c-0.016-0.063-0.033-0.157-0.05-0.308
			c-0.022-0.193-0.019-0.479,0-0.834c-0.188-1.478-0.466-3.928-0.308-4.456c0.041-0.134,0.089-0.294,0.143-0.463
			c-0.717-0.224-4.588,0.003-4.588,0.003c3.283-0.688,4.406-0.646,4.788-0.553c0.296-0.702,0.81-1.509,1.862-2.113
			c-0.986-0.347-3.636-1.349-6.19-2.93c-2.348-1.453-9.749-5.025-16.084-7.984c-0.937,1.463-1.8,2.977-2.583,4.539
			c7.199,3.781,15.413,8.049,17.725,9.249c-4.25,0.912-7.677,2.892-11.325,6.003c-3.644,3.108-6.285,16.561-4.14,29.133
			c0.342,1.998,0.765,4.031,1.235,6.039c2.279,3.312,4.95,6.334,7.945,9c-1.809-7.727-3.924-17.537-4.427-23.166
			C11.348,53.489,15.181,47.357,17.021,45.056z"/>
		<path fill="#E6E6E6" d="M28.367,42.603c0,0-0.036,0-0.104,0.002C28.319,42.83,28.367,42.603,28.367,42.603z"/>
		<path fill="#E6E6E6" d="M30.111,33.88c-1.053,0.604-1.566,1.411-1.862,2.113c0.172,0.042,0.194,0.093,0.194,0.093l-0.383,0.46
			c-0.003-0.001-0.009-0.001-0.012-0.003c-0.054,0.169-0.102,0.329-0.143,0.463c-0.158,0.528,0.12,2.978,0.308,4.456
			c0.048-0.912,0.196-2.328,0.306-4.149C28.674,34.783,30.111,33.88,30.111,33.88z"/>
		<path fill="#E6E6E6" d="M28.214,42.297c0.017,0.151,0.034,0.245,0.05,0.308c0.067-0.001,0.104-0.002,0.104-0.002
			s-0.067-0.471-0.153-1.141C28.195,41.818,28.191,42.104,28.214,42.297z"/>
		<path fill="#E6E6E6" d="M67.006,48.2c-0.01,0-0.031,0.015-0.046,0.02c0.317,0.133,0.506,0.21,0.506,0.21S67.236,48.2,67.006,48.2z
			"/>
		<path fill="#E6E6E6" d="M62.943,57.246l0.535,0.077l-0.513-0.236C62.951,57.186,62.943,57.246,62.943,57.246z"/>
		<path fill="#E6E6E6" d="M87.782,73.883l0.536-0.154c-0.184,0.057-0.365,0.101-0.553,0.137
			C87.777,73.877,87.782,73.883,87.782,73.883z"/>
		<path fill="#E6E6E6" d="M80.941,64.764c0.767,0.902,3.008,2.295,3.008,2.295c-0.025-0.056-0.057-0.115-0.088-0.175
			c-0.704-0.435-1.666-0.993-1.906-1.28C81.805,65.423,81.369,65.102,80.941,64.764z"/>
		<path fill="#E6E6E6" d="M80.941,64.764c0.428,0.338,0.863,0.659,1.014,0.84c-0.262-0.314-0.986-1.162-1.419-1.67
			c0.021,0.114,0.082,0.275,0.19,0.52C80.771,64.546,80.848,64.65,80.941,64.764z"/>
		<path fill="#E6E6E6" d="M64.457,51.378c0.16,0.077,0.249,0.118,0.249,0.118l0.383-0.537l-0.312-0.145
			c-0.075,0.125-0.151,0.246-0.225,0.375C64.521,51.248,64.488,51.314,64.457,51.378z"/>
		<path fill="#E6E6E6" d="M73.119,56.445l-0.357-0.254c0.047,0.009,0.163,0.02,0.313,0.031c-0.339-0.267-0.55-0.435-0.55-0.435
			l-1.463-0.365l1.336,0.902C72.398,56.326,72.7,56.378,73.119,56.445z"/>
		<path fill="#E6E6E6" d="M73.119,56.445c0.098,0.017,0.197,0.033,0.307,0.052c-0.128-0.101-0.244-0.19-0.351-0.274
			c-0.15-0.012-0.269-0.021-0.313-0.029L73.119,56.445z"/>
		<path fill="#E6E6E6" d="M43.087,40.763l-0.46,0.537c0.028,0.004,0.118,0.037,0.235,0.083c0.17-0.158,0.345-0.323,0.523-0.481
			L43.087,40.763z"/>
		<path fill="#E6E6E6" d="M71.02,55.395c0,0.006-0.004,0.012-0.004,0.018l0.049,0.013L71.02,55.395z"/>
		<path fill="#E6E6E6" d="M42.014,42.067c0.005-0.002,0.01-0.007,0.015-0.009c0.011-0.254,0.025-0.516,0.047-0.786
			C41.289,42.42,41.454,42.345,42.014,42.067z"/>
		<path fill="#E6E6E6" d="M70.686,55.329c0,0,0.114,0.065,0.299,0.173c0.011-0.029,0.021-0.061,0.031-0.091L70.686,55.329z"/>
		<path fill="#5688C7" d="M74.749,56.709c-0.422-0.064-0.903-0.143-1.323-0.212c0.684,0.538,1.65,1.29,2.504,1.94l-1.181-1.269
			c0.46,0.076,3.22,0.229,3.526,0.843c0.141,0.28-0.152,0.59-0.51,0.846c0.686-0.438,1.598-1.096,1.791-1.502
			c-0.045-0.011-0.093-0.022-0.132-0.032C78.198,57.016,75.745,56.863,74.749,56.709z"/>
		<path fill="#5688C7" d="M77.766,58.857c0.357-0.256,0.65-0.564,0.51-0.846c-0.307-0.613-3.065-0.767-3.525-0.843l1.182,1.269
			c0.42,0.318,0.81,0.61,1.127,0.842C77.186,59.215,77.453,59.059,77.766,58.857z"/>
		<path fill="#5688C7" d="M77.766,58.857c-0.244,0.176-0.519,0.326-0.709,0.422c0.002,0,0.002,0,0.002,0.002
			c0.67-0.314,2.58-1.23,3.213-1.737c-0.272-0.073-0.513-0.137-0.715-0.188C79.363,57.764,78.451,58.42,77.766,58.857z"/>
		<path fill="#5688C7" d="M79.99,63.136c1.982-0.145,4.629-3.333,5.158-3.997c-0.123-0.082-0.244-0.154-0.357-0.205
			c-0.624-0.283-2.598-0.863-4.076-1.27c-0.64,0.518-2.138,1.681-3.088,2.046C78.542,60.489,79.566,62.325,79.99,63.136z"/>
		<path fill="#5688C7" d="M77.766,58.857c-0.312,0.201-0.58,0.356-0.709,0.422C77.247,59.184,77.521,59.033,77.766,58.857z"/>
		<path fill="#5688C7" d="M77.057,59.279c-0.316-0.23-0.707-0.522-1.127-0.842l0.889,0.955c0,0,0.043-0.021,0.102-0.048
			C76.958,59.328,77,59.309,77.057,59.279z"/>
		<path fill="#E6E6E6" d="M42.396,35.627c-0.625,0.749-1.917,3.68-1.303,8.816c0.613,5.136,5.289,4.6,5.289,4.6
			c-2.99-0.767-3.834-3.45-4.216-4.83c-0.136-0.485-0.174-1.258-0.139-2.156c-0.005,0.002-0.01,0.007-0.015,0.009
			c-0.56,0.278-0.725,0.354,0.062-0.795c0.117-1.494,0.402-3.19,0.781-4.495C43.547,34.4,46,32.944,46,32.944v-0.307
			C43.623,33.634,43.547,34.247,42.396,35.627z"/>
		<path fill="#E6E6E6" d="M43.087,40.763l0.299,0.139c0.33-0.293,0.673-0.556,1.003-0.676c0.844-0.306,2.686-0.791,3.682-0.843
			c1.455-0.077,1.763,1.15,2.529,0.92c0,0-0.919-1.61-2.3-1.687c-1.38-0.077-4.907,0.767-5.98,2.3
			c-0.095,0.135-0.168,0.243-0.244,0.355c-0.021,0.27-0.036,0.532-0.047,0.786c0.24-0.125,0.525-0.385,0.834-0.674
			c-0.117-0.046-0.207-0.08-0.235-0.083L43.087,40.763z"/>
		<path fill="#E6E6E6" d="M35.113,37.39c0-2.223,2.453-5.98,2.453-5.98c-2.529,1.84-2.989,4.217-3.68,6.363
			c-0.689,2.147,0.384,5.903,0.69,7.283c0.306,1.38,2.069,4.447,2.069,4.447s-0.996-2.53-1.609-4.523
			C34.423,42.987,35.113,39.613,35.113,37.39z"/>
		<path fill="#E6E6E6" d="M28.443,36.087c0,0-0.022-0.051-0.194-0.093c-0.382-0.092-1.505-0.135-4.788,0.553
			c0,0,3.871-0.227,4.588-0.003c0.003,0.001,0.009,0.001,0.012,0.003L28.443,36.087z"/>
		<path fill="#E6E6E6" d="M42.862,41.383c2.217,0.873,19.324,8.926,21.595,9.995c0.031-0.062,0.062-0.13,0.096-0.188
			c0.073-0.129,0.149-0.25,0.227-0.375l-21.393-9.913C43.207,41.06,43.032,41.225,42.862,41.383z"/>
		<path fill="#E6E6E6" d="M67.466,48.43c0,0-0.188-0.078-0.506-0.21c-0.278,0.094-1.278,1.113-2.183,2.595l0.312,0.146l-0.383,0.537
			c0,0-0.089-0.041-0.249-0.118c-0.831,1.645-1.376,4.96-1.49,5.709l0.514,0.236c0.076-0.768,0.994-4.294,1.687-5.903
			C65.855,49.81,67.466,48.43,67.466,48.43z"/>
		<path fill="#E6E6E6" d="M88.256,62.798c-0.066-0.284-0.179-0.765-0.32-1.335c-0.23-0.921-1.764-1.917-2.836-2.913
			c-1.074-0.997-5.598-1.841-6.44-1.993c-0.751-0.137-6.296-1.305-7.5-1.559c0.339-0.917,0.745-1.696,1.062-2.045
			c0.689-0.768,1.687-2.454,6.438-1.688c0,0-5.521-1.303-7.054,1.303c-2.088,3.551-2.068,4.602-1.84,6.287
			c0.23,1.687,3.067,6.287,3.604,6.824c0.536,0.535,1.532,1.455,1.532,1.455s-4.105-5.584-4.369-8.74
			c-0.071-0.853,0.14-1.918,0.451-2.894c-0.185-0.106-0.299-0.173-0.299-0.173l0.33,0.082c0-0.006,0.004-0.012,0.004-0.018
			l0.045,0.029l1.461,0.365c0,0,0.213,0.168,0.551,0.434c1.33,0.104,6.229,0.368,6.503,0.918c0.028,0.06,0.019,0.133-0.021,0.217
			c0.201,0.051,0.44,0.113,0.713,0.188c0.129-0.104,0.211-0.191,0.211-0.252c0-0.422,0.541,0.12,0.541,0.12
			s-0.116,0.099-0.308,0.252c1.479,0.405,3.452,0.985,4.076,1.269c0.112,0.053,0.233,0.123,0.358,0.207
			c0.062-0.076,0.103-0.13,0.103-0.13l0.69,0.612c0,0-0.032,0.037-0.08,0.091c0.6,0.548,1.175,1.218,1.459,1.597
			c0.461,0.613,0.461,1.303,0.461,1.303l0.013-0.233C87.857,62.42,88.021,62.568,88.256,62.798z"/>
		<path fill="#E6E6E6" d="M74.749,56.709c0.996,0.154,3.449,0.307,4.677,0.614c0.039,0.01,0.088,0.021,0.131,0.032
			c0.041-0.084,0.051-0.156,0.021-0.215c-0.275-0.551-5.174-0.815-6.503-0.918c0.106,0.082,0.223,0.174,0.351,0.273
			C73.846,56.566,74.327,56.645,74.749,56.709z"/>
		<path fill="#E6E6E6" d="M80.941,64.764c-0.32-0.253-0.637-0.514-0.821-0.729c-0.021-0.107-0.013-0.324,0.038-0.528l-0.03-0.025
			c0,0.025-0.013,0.045-0.008,0.072c-0.022-0.027-0.021-0.056-0.007-0.085L79.73,63.15c0.084,0.006,0.174-0.006,0.26-0.014
			c-0.424-0.811-1.448-2.646-2.363-3.426c-0.146,0.057-0.281,0.098-0.396,0.109l-0.412-0.428l-0.889-0.955l-2.811-1.99
			c-0.419-0.068-0.721-0.12-0.721-0.12l-1.336-0.902l-0.049-0.013c-0.011,0.029-0.021,0.061-0.029,0.091
			c1.078,0.632,4.865,2.935,6.371,4.964c1.763,2.377,2.99,4.602,4.14,5.443c1.149,0.843,2.3,1.609,2.53,1.688
			c0.229,0.076,1.148,2.146,1.457,2.836c0.306,0.689,1.686,2.685,1.992,3.066c0.207,0.258,0.27,0.337,0.291,0.365
			c0.188-0.036,0.369-0.08,0.553-0.137c0,0-1.994-2.684-2.301-3.449s-1.082-3.467-2.19-3.656c-0.361-0.121,0.097,0.381,0.122,0.438
			C83.949,67.059,81.708,65.666,80.941,64.764z"/>
		<path fill="#E6E6E6" d="M77.059,59.281c0-0.002,0-0.002-0.002-0.002c-0.057,0.027-0.099,0.049-0.138,0.065
			C76.957,59.328,77.003,59.309,77.059,59.281z"/>
		<path fill="#E6E6E6" d="M80.12,64.033c0.187,0.217,0.501,0.478,0.821,0.73c-0.096-0.113-0.172-0.219-0.215-0.312
			c-0.108-0.243-0.17-0.404-0.19-0.52c-0.2-0.231-0.345-0.4-0.345-0.4l-0.033-0.027C80.107,63.709,80.102,63.926,80.12,64.033z"/>
		<path fill="#E6E6E6" d="M80.12,63.552c-0.005-0.026,0.008-0.047,0.008-0.071l-0.015-0.014C80.1,63.496,80.098,63.523,80.12,63.552
			z"/>
		<path fill="#E6E6E6" d="M73.119,56.445l2.811,1.992c-0.854-0.65-1.82-1.402-2.504-1.94C73.316,56.479,73.217,56.462,73.119,56.445
			z"/>
		<path fill="#E6E6E6" d="M79.99,63.136c0.062,0.12,0.111,0.218,0.146,0.285c0.018-0.062,0.055-0.112,0.114-0.151
			c0.106-0.201,0.286-0.312,0.567-0.134c0.252-0.075,0.476-0.126,0.476-0.126s0.308,0.049,0.892-0.207
			c0.354-0.181,0.726-0.4,1.086-0.667c0.121-0.091,0.238-0.179,0.371-0.29c1.267-1.076,2.002-1.882,2.221-2.133
			c-0.239-0.221-0.483-0.421-0.713-0.574C84.619,59.803,81.973,62.991,79.99,63.136z"/>
		<path fill="#E6E6E6" d="M80.166,63.48c0.009-0.031,0.021-0.062,0.029-0.094c-0.021,0.018-0.037,0.032-0.053,0.049
			C80.152,63.454,80.159,63.468,80.166,63.48z"/>
		<path fill="#E6E6E6" d="M80.771,63.15c-0.223,0.067-0.449,0.15-0.574,0.236c-0.01,0.031-0.021,0.062-0.03,0.094
			c0.017,0.03,0.024,0.052,0.024,0.052s0.32-0.065,0.801-0.228c-0.092-0.1-0.149-0.16-0.149-0.16
			C80.814,63.146,80.796,63.148,80.771,63.15z"/>
		<path fill="#E6E6E6" d="M80.818,63.136c-0.281-0.178-0.461-0.067-0.567,0.134c0.11-0.074,0.288-0.111,0.521-0.117
			C80.787,63.146,80.805,63.141,80.818,63.136z"/>
		<path fill="#E6E6E6" d="M80.195,63.389c0.017-0.043,0.035-0.082,0.056-0.119c-0.062,0.039-0.099,0.09-0.114,0.151
			c0.002,0.005,0.004,0.011,0.006,0.015C80.158,63.42,80.174,63.404,80.195,63.389z"/>
		<path fill="#E6E6E6" d="M83.643,61.846c-0.133,0.111-0.25,0.199-0.371,0.29C83.396,62.044,83.52,61.949,83.643,61.846z"/>
		<path fill="#E6E6E6" d="M81.294,63.01c0,0-0.224,0.051-0.476,0.126c0.01,0.005,0.016,0.005,0.022,0.011
			c0,0,0.058,0.061,0.149,0.158c0.336-0.115,0.75-0.277,1.193-0.502C81.602,63.059,81.294,63.01,81.294,63.01z"/>
		<path fill="#E6E6E6" d="M80.771,63.15c-0.231,0.007-0.41,0.045-0.521,0.117c-0.021,0.039-0.039,0.077-0.056,0.119
			C80.32,63.302,80.549,63.219,80.771,63.15z"/>
		<path fill="#E6E6E6" d="M80.842,63.146c-0.008-0.006-0.014-0.006-0.021-0.011c-0.016,0.005-0.032,0.011-0.049,0.017
			C80.796,63.148,80.814,63.146,80.842,63.146z"/>
		<path fill="#E6E6E6" d="M80.133,63.443c-0.002,0.013-0.004,0.023-0.005,0.035l0.03,0.025c0.003-0.008,0.006-0.016,0.008-0.023
			c-0.007-0.014-0.014-0.026-0.023-0.045C80.141,63.438,80.137,63.441,80.133,63.443z"/>
		<path fill="#E6E6E6" d="M80.113,63.467c0.004-0.007,0.014-0.016,0.02-0.021c0.002-0.008,0.001-0.016,0.004-0.023
			c-0.035-0.068-0.085-0.165-0.146-0.285c-0.086,0.008-0.176,0.02-0.26,0.014L80.113,63.467z"/>
		<path fill="#E6E6E6" d="M80.191,63.532c0,0-0.01-0.021-0.025-0.052c-0.002,0.009-0.005,0.017-0.008,0.023L80.191,63.532z"/>
		<path fill="#E6E6E6" d="M80.113,63.467l0.015,0.014c0.001-0.013,0.003-0.023,0.005-0.035
			C80.127,63.451,80.117,63.46,80.113,63.467z"/>
		<path fill="#E6E6E6" d="M80.143,63.436c-0.002-0.004-0.004-0.01-0.006-0.015c-0.003,0.009-0.002,0.017-0.004,0.022
			C80.137,63.441,80.141,63.438,80.143,63.436z"/>
		<path fill="#E6E6E6" d="M85.252,59.01c0,0-0.04,0.053-0.104,0.129c0.229,0.153,0.475,0.354,0.715,0.574
			c0.047-0.054,0.078-0.091,0.078-0.091L85.252,59.01z"/>
		<path fill="#E6E6E6" d="M93.693,69.489c-0.098,0.253-0.162,0.405-0.162,0.405c0.115,0.183,0.283,0.465,0.488,0.814
			c0.217,0.363,0.383,0.654,0.479,0.828l0.204-0.492C94.702,71.046,94.312,70.41,93.693,69.489z"/>
		<path fill="#E6E6E6" d="M88.256,62.798c0.04,0.175,0.062,0.274,0.062,0.274l-0.536-0.461c0,0,1.844,1.869,3.489,4.011
			c1.129,1.471,2.145,3.077,2.748,4.088c-0.205-0.351-0.373-0.633-0.488-0.813c0,0,0.064-0.153,0.162-0.406
			c-0.577-0.86-1.354-1.971-2.196-3.049C90.312,64.93,88.962,63.492,88.256,62.798z"/>
		<path fill="#E6E6E6" d="M88.256,62.798c-0.232-0.229-0.396-0.378-0.461-0.42l-0.013,0.233l0.536,0.461
			C88.318,63.072,88.296,62.973,88.256,62.798z"/>
		<path fill="#E6E6E6" d="M77.434,59.546c0.062,0.044,0.129,0.108,0.193,0.164c0.95-0.365,2.448-1.528,3.088-2.046
			c-0.154-0.042-0.303-0.082-0.443-0.12c-0.633,0.507-2.543,1.423-3.213,1.737C77.195,59.381,77.325,59.475,77.434,59.546z"/>
		<path fill="#E6E6E6" d="M76.818,59.393c0,0,0.041-0.02,0.101-0.047C76.859,59.373,76.818,59.393,76.818,59.393z"/>
		<path fill="#E6E6E6" d="M81.021,57.412c0,0-0.541-0.542-0.541-0.12c0,0.06-0.082,0.147-0.211,0.252
			c0.143,0.038,0.291,0.078,0.444,0.12C80.904,57.511,81.021,57.412,81.021,57.412z"/>
		<path fill="#E6E6E6" d="M77.059,59.281c-0.056,0.025-0.102,0.047-0.14,0.063c-0.06,0.027-0.101,0.048-0.101,0.048l0.412,0.428
			c0.113-0.014,0.25-0.055,0.396-0.11c-0.065-0.056-0.131-0.12-0.194-0.164C77.325,59.475,77.195,59.381,77.059,59.281z"/>
	</g>
	<path fill="#E6E6E6" d="M83.411,52.217c0,0,4,0.95,5.827,1.688l0.111-0.146c0,0-1.514-0.745-5.914-1.647L83.411,52.217z"/>
</g>
</svg>
