<?xml version="1.0" encoding="utf-8"?>
<!-- Generator: Adobe Illustrator 16.0.0, SVG Export Plug-In . SVG Version: 6.00 Build 0)  -->
<!DOCTYPE svg PUBLIC "-//W3C//DTD SVG 1.1//EN" "http://www.w3.org/Graphics/SVG/1.1/DTD/svg11.dtd">
<svg version="1.1" id="Layer_1" xmlns="http://www.w3.org/2000/svg" xmlns:xlink="http://www.w3.org/1999/xlink" x="0px" y="0px"
	 width="100px" height="100px" viewBox="0 0 100 100" enable-background="new 0 0 100 100" xml:space="preserve">
<g>
	<circle fill="#414042" cx="50" cy="49.999" r="49.491"/>
	<polygon fill="#A7A9AC" points="44.579,59.943 37.99,97.916 43.195,98.855 49.547,69.039 	"/>
	<path fill="#D1D3D4" d="M38.846,38.217c-1.557,2.447,11.328,42.553,12.322,43.147c0.995,0.594,9.436-4.49,16.064-12.199
		c6.633-7.709,6.619-21.458,5.562-26.097C71.09,35.587,64.751,29.39,63.68,28.94C62.6,28.489,40.403,35.773,38.846,38.217z
		 M69.43,43.371c-0.375,0.627-1.188,0.833-1.816,0.458c-0.629-0.375-0.834-1.188-0.457-1.815c0.373-0.629,1.188-0.834,1.814-0.458
		C69.6,41.93,69.805,42.743,69.43,43.371z M70.07,52.146c-0.609,1.021-1.932,1.354-2.952,0.746
		c-1.021-0.612-1.354-1.935-0.743-2.956c0.607-1.02,1.93-1.354,2.953-0.743C70.346,49.804,70.68,51.127,70.07,52.146z
		 M66.936,60.787c-0.752,1.256-2.377,1.666-3.636,0.916c-1.256-0.752-1.665-2.379-0.915-3.635s2.377-1.666,3.633-0.916
		S67.684,59.53,66.936,60.787z M51.521,65.758c1.479-2.475,4.682-3.279,7.154-1.803c2.471,1.479,3.278,4.681,1.801,7.152
		c-1.477,2.473-4.681,3.281-7.151,1.804C50.854,71.436,50.045,68.23,51.521,65.758z M45.587,43.402
		c1.429-2.715,13.401-8.871,15.552-7.299c1,0.734,3.988,7.689,1.397,12.508c-2.589,4.819-10.214,12.417-12.743,11
		C47.263,58.195,44.158,46.119,45.587,43.402z"/>
	<path fill="#5688C7" d="M58.596,22.021c-1.099-0.381-9.956-0.009-16.224,4.416c-3.89,2.745-13.088,12.959-13.307,23.127
		c-0.221,10.167,2.655,19.588,3.793,19.813c1.139,0.223,37.529-20.996,38.005-23.856C71.342,42.66,59.699,22.406,58.596,22.021z
		 M46.227,27.867c0.717,0.141,1.187,0.835,1.045,1.554c-0.141,0.717-0.837,1.186-1.555,1.044c-0.717-0.141-1.186-0.837-1.045-1.554
		C44.812,28.192,45.508,27.726,46.227,27.867z M40.857,33.31c1.166,0.229,1.926,1.36,1.697,2.527s-1.359,1.928-2.526,1.698
		c-1.167-0.229-1.929-1.359-1.699-2.526C38.557,33.843,39.689,33.082,40.857,33.31z M37.996,41.441
		c1.438,0.282,2.373,1.674,2.092,3.11c-0.282,1.435-1.674,2.372-3.11,2.089c-1.437-0.281-2.372-1.673-2.089-3.108
		C35.168,42.096,36.561,41.16,37.996,41.441z M36.904,61.646c-2.826-0.555-4.668-3.295-4.114-6.123
		c0.556-2.828,3.295-4.67,6.123-4.114c2.825,0.554,4.668,3.295,4.114,6.122C42.473,60.357,39.732,62.2,36.904,61.646z
		 M48.421,54.117C45.594,53.477,45,42.729,46.296,37.414s8.167-8.491,9.402-8.367c2.647,0.267,7.438,12.85,6.687,15.824
		C61.635,47.845,51.251,54.755,48.421,54.117z"/>
	<path fill="#A7A9AC" d="M68.7,44.928c0.521-2.657-0.981-5.235-3.433-6.159l0.018-0.079l-16.008-3.137
		c-2.963-0.581-5.833,1.349-6.414,4.312c-0.58,2.961,1.35,5.833,4.311,6.414l-0.016,0.081l16.008,3.138l0.032-0.161
		C65.816,49.405,68.18,47.584,68.7,44.928z"/>
	<circle fill="#D1D3D4" cx="63.339" cy="43.877" r="1.822"/>
	<circle fill="#D1D3D4" cx="48.887" cy="40.673" r="1.823"/>
	<g>
		<path opacity="0.4" fill="#A7A9AC" enable-background="new    " d="M1.299,41.193c-3.532,19.534,4.928,38.454,20.124,49.215
			c0,0-0.159-7.2,2.183-12.069c1.41-2.933,8.307-49.975,8.307-49.975l5.473-26.222C19.383,6.901,4.832,21.658,1.299,41.193z"/>
		<path opacity="0.4" fill="#A7A9AC" enable-background="new    " d="M98.701,58.807c3.342-18.481-4.047-36.418-17.723-47.415
			c0,0-4.821,31.727-5.445,34.168c-0.624,2.443-8.1,32.67-8.1,32.67l-1.936,18.78C82.158,91.504,95.361,77.287,98.701,58.807z"/>
	</g>
</g>
</svg>
