<?xml version="1.0" encoding="utf-8"?>
<!-- Generator: Adobe Illustrator 16.0.0, SVG Export Plug-In . SVG Version: 6.00 Build 0)  -->
<!DOCTYPE svg PUBLIC "-//W3C//DTD SVG 1.1//EN" "http://www.w3.org/Graphics/SVG/1.1/DTD/svg11.dtd">
<svg version="1.1" id="Layer_1" xmlns="http://www.w3.org/2000/svg" xmlns:xlink="http://www.w3.org/1999/xlink" x="0px" y="0px"
	 width="400px" height="400px" viewBox="0 0 400 400" enable-background="new 0 0 400 400" xml:space="preserve">
<g id="Layer_3" display="none">
	<rect x="-400" y="-0.881" display="inline" fill="#6D6E71" width="1200" height="800.881"/>
</g>
<g id="Layer_2">
	<path opacity="0.3" fill="#FFFFFF" d="M378.808,365.033c0,7.684-6.229,13.912-13.913,13.912H35.105
		c-7.684,0-13.912-6.229-13.912-13.912V35.243c0-7.683,6.229-13.912,13.912-13.912h329.79c7.685,0,13.913,6.229,13.913,13.912
		V365.033z"/>
	<g>
		<line fill="#FFFFFF" x1="50.28" y1="34.676" x2="50.28" y2="5.978"/>
		<path fill="#FFFFFF" d="M53.673,34.676c0-9.566,0-19.132,0-28.698c0-4.374-6.784-4.374-6.784,0c0,9.566,0,19.132,0,28.698
			C46.889,39.049,53.673,39.049,53.673,34.676L53.673,34.676z"/>
	</g>
	<g>
		<line fill="#FFFFFF" x1="349.719" y1="34.676" x2="349.719" y2="5.978"/>
		<path fill="#FFFFFF" d="M353.11,34.676c0-9.566,0-19.132,0-28.698c0-4.374-6.784-4.374-6.784,0c0,9.566,0,19.132,0,28.698
			C346.327,39.049,353.11,39.049,353.11,34.676L353.11,34.676z"/>
	</g>
	<g>
		<line fill="#FFFFFF" x1="50.28" y1="392.292" x2="50.28" y2="363.594"/>
		<path fill="#FFFFFF" d="M53.673,392.292c0-9.566,0-19.133,0-28.698c0-4.375-6.784-4.375-6.784,0c0,9.565,0,19.132,0,28.698
			C46.889,396.666,53.673,396.666,53.673,392.292L53.673,392.292z"/>
	</g>
	<g>
		<line fill="#FFFFFF" x1="349.719" y1="392.292" x2="349.719" y2="363.594"/>
		<path fill="#FFFFFF" d="M353.11,392.292c0-9.566,0-19.133,0-28.698c0-4.375-6.784-4.375-6.784,0c0,9.565,0,19.132,0,28.698
			C346.327,396.666,353.11,396.666,353.11,392.292L353.11,392.292z"/>
	</g>
	<g>
		<line fill="#FFFFFF" x1="35.542" y1="348.854" x2="6.844" y2="348.854"/>
		<path fill="#FFFFFF" d="M35.542,345.462c-9.566,0-19.132,0-28.697,0c-4.375,0-4.375,6.784,0,6.784c9.565,0,19.131,0,28.697,0
			C39.915,352.245,39.915,345.462,35.542,345.462L35.542,345.462z"/>
	</g>
	<g>
		<line fill="#FFFFFF" x1="35.542" y1="49.416" x2="6.843" y2="49.416"/>
		<path fill="#FFFFFF" d="M35.542,46.024c-9.566,0-19.132,0-28.699,0c-4.373,0-4.373,6.784,0,6.784c9.566,0,19.133,0,28.699,0
			C39.915,52.806,39.915,46.024,35.542,46.024L35.542,46.024z"/>
	</g>
	<g>
		<line fill="#FFFFFF" x1="393.157" y1="348.854" x2="364.458" y2="348.854"/>
		<path fill="#FFFFFF" d="M393.157,345.462c-9.566,0-19.131,0-28.699,0c-4.374,0-4.374,6.784,0,6.784c9.568,0,19.133,0,28.699,0
			C397.531,352.245,397.531,345.462,393.157,345.462L393.157,345.462z"/>
	</g>
	<g>
		<line fill="#FFFFFF" x1="393.157" y1="49.416" x2="364.458" y2="49.416"/>
		<path fill="#FFFFFF" d="M393.157,46.024c-9.566,0-19.131,0-28.699,0c-4.374,0-4.374,6.784,0,6.784c9.568,0,19.133,0,28.699,0
			C397.531,52.806,397.531,46.024,393.157,46.024L393.157,46.024z"/>
	</g>
</g>
<g id="Layer_1_1_">
</g>
</svg>
