<?xml version="1.0" encoding="utf-8"?>
<!-- Generator: Adobe Illustrator 16.0.0, SVG Export Plug-In . SVG Version: 6.00 Build 0)  -->
<!DOCTYPE svg PUBLIC "-//W3C//DTD SVG 1.1//EN" "http://www.w3.org/Graphics/SVG/1.1/DTD/svg11.dtd">
<svg version="1.1" id="Layer_1" xmlns="http://www.w3.org/2000/svg" xmlns:xlink="http://www.w3.org/1999/xlink" x="0px" y="0px"
	 width="100px" height="100px" viewBox="0 0 100 100" enable-background="new 0 0 100 100" xml:space="preserve">
<g>
	<g>
		<path fill="#BC9F77" d="M57.148,1.021C54.814,0.683,52.428,0.5,50,0.5C22.661,0.5,0.5,22.662,0.5,50
			c0,16.802,8.378,31.639,21.176,40.586c3.448-10.76,15.577-40.4,21.703-50.202C48.589,32.047,54.366,11.622,57.148,1.021z"/>
		<path fill="#D3BFA4" d="M99.5,50c0-24.909-18.4-45.514-42.352-48.979c-2.782,10.602-8.561,31.026-13.771,39.363
			c-6.126,9.802-18.255,39.442-21.703,50.202C29.703,96.199,39.463,99.5,50,99.5C77.337,99.5,99.5,77.339,99.5,50z"/>
	</g>
	<path fill="#DC764A" d="M59.906,74.035c0-1.86-2.766-1.686-5.645-1.686c-2.877,0-4.775-0.176-4.775,1.686s2.332,3.37,5.21,3.37
		C57.575,77.405,59.906,75.896,59.906,74.035z"/>
	<path fill="#5688C7" d="M58.648,36.971c0-2.382-0.312-3.414-2.694-3.414c-2.381,0-3.953-0.225-3.953,2.156
		c0,1.19,2.274,0.837,3.054,1.617c0.781,0.78,0.069,2.694,1.26,2.694C58.693,40.024,58.648,39.352,58.648,36.971z"/>
	<path fill="#5688C7" d="M81.734,67.732c0-0.861-0.364-1.233-3.131-1.233c-2.769,0-4.594-0.083-4.594,0.778
		c0,0.432,1.247,1.996,2.155,2.277c0.907,0.282,1.472-0.719,2.854-0.719C81.789,68.837,81.734,68.594,81.734,67.732z"/>
	<path fill="#5688C7" d="M40.862,86.915c0-0.86,0.253-0.897-2.516-0.897c-2.767,0-1.615,0.037-1.615,0.897
		c0,0.431,0.619,0.685,1.527,0.965C39.165,88.163,40.862,87.775,40.862,86.915z"/>
	<path fill="#DC764A" d="M80.926,42.004c0-2.381-1.75-3.596-4.131-3.596s-3.771-2.741-3.771-0.359c0,2.381-1.662,4.314,0.719,4.314
		C76.121,42.363,80.926,44.385,80.926,42.004z"/>
	<path fill="#DC764A" d="M66.555,16.849c0.18-0.719,0.047-0.719-2.337-0.719c-2.381,0-3.638,1.44-1.257,1.44
		S65.977,19.158,66.555,16.849z"/>
	<path fill="#DC764A" d="M47.482,61.443c0.09-0.719,0.023-0.719-1.142-0.719s-3.644,2.336-2.479,2.336S47.2,63.755,47.482,61.443z"
		/>
	<path fill="#6A834C" d="M21.461,69.13c0-0.298,0.91-1.976-0.181-1.976c-1.09,0-3.771,1.678-3.771,1.976
		c0,0.297,0.885,0.538,1.976,0.538C20.575,69.668,21.461,69.427,21.461,69.13z"/>
	<path fill="#6A834C" d="M19.143,39.649c0.094-0.14,1.19-0.535,0.513-0.995c-0.675-0.46-2.868-0.811-2.962-0.671
		c-0.094,0.137,0.378,0.623,1.054,1.083C18.424,39.525,19.049,39.787,19.143,39.649z"/>
	<path fill="#6A834C" d="M34.833,40.194c0.17-0.252,0.433-1.178,1.021-1.745c3.211-3.096-3.137-5.252-4.335-3.455
		c-1.195,1.797,1.101,4.361,1.778,4.821C33.973,40.275,34.66,40.444,34.833,40.194z"/>
	<path fill="#6A834C" d="M33.497,19.978c0.226-0.331,2.034-1.824,1.385-2.267c-0.65-0.441-3.515,0.336-3.739,0.665
		c-0.226,0.33,0.121,0.956,0.771,1.398C32.563,20.216,33.272,20.307,33.497,19.978z"/>
	<path fill="#6A834C" d="M14.069,44.438c0-0.502,0.594-3.335-0.115-3.335c-0.711,0-2.455,2.833-2.455,3.335s0.576,0.909,1.286,0.909
		C13.494,45.347,14.069,44.939,14.069,44.438z"/>
</g>
</svg>
