<?xml version="1.0" encoding="utf-8"?>
<!-- Generator: Adobe Illustrator 16.0.0, SVG Export Plug-In . SVG Version: 6.00 Build 0)  -->
<!DOCTYPE svg PUBLIC "-//W3C//DTD SVG 1.1//EN" "http://www.w3.org/Graphics/SVG/1.1/DTD/svg11.dtd">
<svg version="1.1" id="Layer_1" xmlns="http://www.w3.org/2000/svg" xmlns:xlink="http://www.w3.org/1999/xlink" x="0px" y="0px"
	 width="100px" height="100px" viewBox="0 0 100 100" enable-background="new 0 0 100 100" xml:space="preserve">
<g>
	<circle fill="#E6E7E8" cx="49.881" cy="50.291" r="49.5"/>
	<g>
		<path fill="#A7A9AC" d="M43.816,50.302c0,0-0.77-2.307,0.256-3.589c1.025-1.283,5.127-6.153,10.511-5.64
			c5.384,0.513,6.024,6.793,6.665,8.844c0.641,2.052,5.514,22.562,0.514,26.021c-5,3.461-15.383,0.513-19.998-5.64
			c0,0-0.896-4.358-0.127-5.512c0.769-1.154,2.18-2.308,2.818-0.642c0.643,1.666,0.385,3.717,1.027,4.486
			c0.641,0.768,8.459,6.536,13.202,4.87c4.743-1.667-2.179-24.355-2.179-24.355s-0.385-2.819-1.538-3.459
			c-1.154-0.642-7.05,1.794-7.308,2.692C47.404,49.276,45.738,51.456,43.816,50.302z"/>
		<path fill="#808285" d="M43.944,49.191c0,0,2.99-0.941,3.162-0.171c0.169,0.77,1.452,13.929-1.624,19.613
			c0,0-2.991-0.128-2.991-0.982C42.491,66.795,44.627,62.01,43.944,49.191z"/>
		<path fill="#808285" d="M58.729,45.09c0,0-1.026-3.42-3.504-3.248c-2.479,0.17-6.067,1.369-8.29,3.248
			c0,0-0.854,0.683-0.342,0.769c0.514,0.085,4.956-2.564,6.493-2.991c1.539-0.428,2.137-0.855,2.822-0.428
			C56.592,42.868,56.932,42.612,58.729,45.09z"/>
		<path fill="#808285" d="M44.969,71.495c0,0,7.349,5.194,11.025,5.041c3.3-0.14,2.982-0.091,4.092-0.603
			c1.112-0.515,1.975-2.474,2.145-5.209c0.172-2.732-0.428-4.699-0.428-4.699s0.002,3.076-0.341,4.615
			c-0.341,1.537-0.649,4.318-3.846,4.699C50.438,76.193,44.115,69.701,44.969,71.495z"/>
		<path fill="#414042" d="M46.85,36.543c0,0,2.905,9.914,2.734,11.623c0,0,5.043-0.513,5.727-0.769
			c0.685-0.257,1.367-11.794,0.77-12.734S45.91,35.688,46.85,36.543z"/>
		<path fill="#6D6E71" d="M43.432,16.804c0,0,1.709,19.484,2.392,19.74c0.683,0.257,11.279-1.794,11.621-2.649
			c0.343-0.854-1.795-19.142-2.478-19.142S43.346,15.778,43.432,16.804z"/>
		<path fill="#414042" d="M44.127,1.091c0,0-0.695,15.114-0.012,15.37c0.684,0.257,9.826-0.426,9.912-1.11
			S51.759,1.542,51.045,0.956C50.551,0.553,44.442,0.867,44.127,1.091z"/>
		<circle fill="#BCBEC0" cx="45.738" cy="50.878" r="1.196"/>
	</g>
	<path fill="#5688C7" d="M75.029,7.694c0,0-1.707,22.727-8.534,39.256c-6.827,16.528-14.552,25.69-14.552,25.69
		s3.037,1.303,4.431,1.152c1.087-0.116,12.672-19.861,14.612-25.406c2.516-7.186,7.143-27.712,8.22-37.953
		C79.206,10.434,77.409,9.041,75.029,7.694z"/>
	<path fill="#6480A9" d="M49.396,75.934c0,0,1.529,0.614,2.127,0.779c0.6,0.164,2.365,0.493,2.365,0.493s-6.259,8.01-7.517,12.321
		c-1.258,4.312-1.123,10.062-1.123,10.062l-2.245-0.135L40.4,98.869c0,0,0.583-7.904,1.662-11.139
		C43.14,84.498,47.84,78.27,49.396,75.934z"/>
</g>
</svg>
